<?xml version="1.0" encoding="UTF-8"?>
<svg width="91px" height="62px" viewBox="0 0 91 62" version="1.1" xmlns="http://www.w3.org/2000/svg" xmlns:xlink="http://www.w3.org/1999/xlink">
    <!-- Generator: Sketch 51.3 (57544) - http://www.bohemiancoding.com/sketch -->
    <title>propogate-security</title>
    <desc>Created with Sketch.</desc>
    <defs></defs>
    <g id="Page-1" stroke="none" stroke-width="1" fill="none" fill-rule="evenodd">
        <g id="Tabs-(Icons)" transform="translate(-7.000000, -6.000000)">
            <g id="propogate-security" transform="translate(8.000000, 6.000000)">
                <g id="Group">
                    <path d="M13.562,60.887 C9.781,57.402 6.598,53.145 4.266,48.211 C-3.594,31.562 0.695,12.309 13.547,0.449 M32.203,42.41 C30.734,41.055 29.496,39.402 28.59,37.484 C25.539,31.016 27.203,23.535 32.195,18.926" id="Stroke-1" stroke="#24303A" stroke-width="0.8"></path>
                    <path d="M22.77,51.656 C20.133,49.238 17.91,46.277 16.289,42.844 C10.824,31.27 13.855,17.867 22.859,9.68 M76.074,60.887 C79.852,57.402 83.039,53.145 85.367,48.211 C93.227,31.562 88.938,12.309 76.09,0.449 M57.434,42.41 C58.902,41.055 60.141,39.402 61.043,37.484 C64.098,31.016 62.43,23.535 57.438,18.926" id="Stroke-2" stroke="#24303A" stroke-width="0.8" stroke-dasharray="2,2"></path>
                    <path d="M66.867,51.656 C69.504,49.238 71.727,46.277 73.348,42.844 C78.812,31.27 75.781,17.867 66.777,9.68" id="Stroke-3" stroke="#24303A" stroke-width="0.8"></path>
                    <path d="M71.516,14.422 C69.91,16.027 67.309,16.027 65.703,14.422 C64.098,12.816 64.098,10.215 65.703,8.605 C67.309,7.004 69.91,7.004 71.516,8.605 C73.121,10.215 73.121,12.816 71.516,14.422" id="Fill-110" fill="#24303A"></path>
                    <path d="M45.637,35.613 L43.988,35.613 C42.828,35.613 41.879,34.664 41.879,33.504 L41.879,26.016 C41.879,24.402 43.199,23.082 44.812,23.082 C46.426,23.082 47.746,24.402 47.746,26.016 L47.746,33.504 C47.746,34.664 46.797,35.613 45.637,35.613 Z" id="Stroke-126" stroke="#24303A" stroke-width="0.8"></path>
                    <path d="M48.875,36.254 L40.75,36.254 C40.645,36.254 40.559,36.168 40.559,36.062 L40.559,28.176 C40.559,28.074 40.645,27.984 40.75,27.984 L48.875,27.984 C48.98,27.984 49.066,28.074 49.066,28.176 L49.066,36.062 C49.066,36.168 48.98,36.254 48.875,36.254" id="Fill-127" fill="#FFFFFF"></path>
                    <path d="M48.875,36.254 L40.75,36.254 C40.645,36.254 40.559,36.168 40.559,36.062 L40.559,28.176 C40.559,28.074 40.645,27.984 40.75,27.984 L48.875,27.984 C48.98,27.984 49.066,28.074 49.066,28.176 L49.066,36.062 C49.066,36.168 48.98,36.254 48.875,36.254 Z" id="Stroke-128" stroke="#24303A" stroke-width="0.8"></path>
                    <path d="M25.324,50.156 C25.324,52.426 23.48,54.266 21.211,54.266 C18.941,54.266 17.102,52.426 17.102,50.156 C17.102,47.883 18.941,46.043 21.211,46.043 C23.48,46.043 25.324,47.883 25.324,50.156" id="Fill-129" fill="#FFFFFF"></path>
                    <path d="M25.324,50.156 C25.324,52.426 23.48,54.266 21.211,54.266 C18.941,54.266 17.102,52.426 17.102,50.156 C17.102,47.883 18.941,46.043 21.211,46.043 C23.48,46.043 25.324,47.883 25.324,50.156 Z" id="Stroke-130" stroke="#24303A" stroke-width="0.8"></path>
                </g>
            </g>
        </g>
    </g>
</svg>