<?xml version="1.0" encoding="UTF-8"?>
<svg width="94px" height="88px" viewBox="0 0 94 88" version="1.1" xmlns="http://www.w3.org/2000/svg" xmlns:xlink="http://www.w3.org/1999/xlink">
    <!-- Generator: Sketch 51.3 (57544) - http://www.bohemiancoding.com/sketch -->
    <title>protect-production</title>
    <desc>Created with Sketch.</desc>
    <defs></defs>
    <g id="Page-1" stroke="none" stroke-width="1" fill="none" fill-rule="evenodd">
        <g id="Tabs-(Icons)" transform="translate(0.000000, -249.000000)">
            <g id="protect-production" transform="translate(0.000000, 235.000000)">
                <path d="M8.969,57.961 C8.969,60.23 7.125,62.07 4.855,62.07 C2.586,62.07 0.746,60.23 0.746,57.961 C0.746,55.688 2.586,53.848 4.855,53.848 C7.125,53.848 8.969,55.688 8.969,57.961" id="Fill-12" fill="#24303A"></path>
                <path d="M93.688,57.961 C93.688,60.23 91.848,62.07 89.578,62.07 C87.309,62.07 85.465,60.23 85.465,57.961 C85.465,55.688 87.309,53.848 89.578,53.848 C91.848,53.848 93.688,55.688 93.688,57.961" id="Fill-13" fill="#24303A"></path>
                <path d="M67.055,57.961 L89.578,57.961 M4.855,57.961 L27.551,57.961" id="Stroke-14" stroke="#24303A" stroke-width="0.8"></path>
                <path d="M67.055,50.402 L79.574,50.402 C80.68,50.402 81.574,49.508 81.574,48.402 L81.574,22.746" id="Stroke-15" stroke="#24303A" stroke-width="0.8" stroke-dasharray="2,2"></path>
                <path d="M13.094,39.867 L13.094,49.836 C13.094,50.148 13.348,50.402 13.66,50.402 L27.547,50.402" id="Stroke-16" stroke="#24303A" stroke-width="0.8"></path>
                <path d="M17.207,35.754 C17.207,38.027 15.367,39.867 13.094,39.867 C10.824,39.867 8.984,38.027 8.984,35.754 C8.984,33.484 10.824,31.645 13.094,31.645 C15.367,31.645 17.207,33.484 17.207,35.754" id="Fill-17" fill="#24303A"></path>
                <path d="M85.684,18.637 C85.684,20.906 83.844,22.746 81.574,22.746 C79.305,22.746 77.465,20.906 77.465,18.637 C77.465,16.363 79.305,14.523 81.574,14.523 C83.844,14.523 85.684,16.363 85.684,18.637" id="Fill-18" fill="#FFFFFF"></path>
                <path d="M85.684,18.637 C85.684,20.906 83.844,22.746 81.574,22.746 C79.305,22.746 77.465,20.906 77.465,18.637 C77.465,16.363 79.305,14.523 81.574,14.523 C83.844,14.523 85.684,16.363 85.684,18.637 Z" id="Stroke-19" stroke="#24303A" stroke-width="0.8"></path>
                <path d="M67.055,65.516 L81.508,65.516 C81.543,65.516 81.574,65.547 81.574,65.582 L81.574,76.051" id="Path" stroke="#24303A" stroke-width="0.8"></path>
                <path d="M13.094,93.172 L13.094,66.977 C13.094,66.172 13.75,65.516 14.555,65.516 L27.547,65.516" id="Stroke-20" stroke="#24303A" stroke-width="0.8" stroke-dasharray="2,2"></path>
                <path d="M17.207,97.281 C17.207,95.012 15.367,93.172 13.094,93.172 C10.824,93.172 8.984,95.012 8.984,97.281 C8.984,99.555 10.824,101.395 13.094,101.395 C15.367,101.395 17.207,99.555 17.207,97.281" id="Fill-21" fill="#FFFFFF"></path>
                <path d="M17.207,97.281 C17.207,95.012 15.367,93.172 13.094,93.172 C10.824,93.172 8.984,95.012 8.984,97.281 C8.984,99.555 10.824,101.395 13.094,101.395 C15.367,101.395 17.207,99.555 17.207,97.281 Z" id="Stroke-22" stroke="#24303A" stroke-width="0.8"></path>
                <path d="M85.684,80.164 C85.684,77.891 83.844,76.051 81.574,76.051 C79.305,76.051 77.465,77.891 77.465,80.164 C77.465,82.434 79.305,84.273 81.574,84.273 C83.844,84.273 85.684,82.434 85.684,80.164" id="Fill-23" fill="#24303A"></path>
                <path d="M50.031,69.387 L44.637,69.387 C40.844,69.387 37.742,66.285 37.742,62.492 L37.742,38 C37.742,32.727 42.059,28.41 47.336,28.41 C52.609,28.41 56.926,32.727 56.926,38 L56.926,62.492 C56.926,66.285 53.824,69.387 50.031,69.387 Z" id="Stroke-24" stroke="#24303A" stroke-width="0.8"></path>
                <path d="M60.617,71.473 L34.051,71.473 C33.707,71.473 33.426,71.195 33.426,70.848 L33.426,45.07 C33.426,44.723 33.707,44.445 34.051,44.445 L60.617,44.445 C60.961,44.445 61.242,44.723 61.242,45.07 L61.242,70.848 C61.242,71.195 60.961,71.473 60.617,71.473" id="Fill-25" fill="#FFFFFF"></path>
                <path d="M60.617,71.473 L34.051,71.473 C33.707,71.473 33.426,71.195 33.426,70.848 L33.426,45.07 C33.426,44.723 33.707,44.445 34.051,44.445 L60.617,44.445 C60.961,44.445 61.242,44.723 61.242,45.07 L61.242,70.848 C61.242,71.195 60.961,71.473 60.617,71.473 Z" id="Stroke-26-Copy" stroke="#24303A" stroke-width="0.8"></path>
            </g>
        </g>
    </g>
</svg>